name rise31.4854peak64.571fall78.6902.mot
datacolumns 19
datarows 24
range 23.70658200000000 23.74491500000000
endheader
time	ground_force1_vx	ground_force1_vy	ground_force1_vz	ground_force1_px	ground_force1_py	ground_force1_pz	ground_force2_vx	ground_force2_vy	ground_force2_vz	ground_force2_px	ground_force2_py	ground_force2_pz	ground_torque1_x	ground_torque1_y	ground_torque1_z	ground_torque2_x	ground_torque2_y	ground_torque2_z	
23.70658200000000	71.90869100000000	795.39200100000005	60.56479600000000	0.32898400000000	0.00000000000000	0.09868700000000	0.00000000000000	0.00000000000000	0.00000000000000	0.00000000000000	0.00000000000000	0.00000000000000	0.00000000000000	24.59302400000000	0.00000000000000	0.00000000000000	0.00000000000000	0.00000000000000	
23.70824800000000	71.25104399999999	797.91433600000005	60.70104000000000	0.32804200000000	0.00000000000000	0.09864100000000	0.00000000000000	0.00000000000000	0.00000000000000	0.00000000000000	0.00000000000000	0.00000000000000	0.00000000000000	24.65891200000000	0.00000000000000	0.00000000000000	0.00000000000000	0.00000000000000	
23.70991200000000	70.59060400000000	800.25048600000002	60.83214700000000	0.32712000000000	0.00000000000000	0.09859400000000	0.00000000000000	0.00000000000000	0.00000000000000	0.00000000000000	0.00000000000000	0.00000000000000	0.00000000000000	24.72281800000000	0.00000000000000	0.00000000000000	0.00000000000000	0.00000000000000	
23.71158000000000	69.92785600000001	802.39908900000000	60.95819600000000	0.32621600000000	0.00000000000000	0.09854800000000	0.00000000000000	0.00000000000000	0.00000000000000	0.00000000000000	0.00000000000000	0.00000000000000	0.00000000000000	24.78473500000000	0.00000000000000	0.00000000000000	0.00000000000000	0.00000000000000	
23.71324300000000	69.26321400000000	804.35905800000000	61.07920200000000	0.32533000000000	0.00000000000000	0.09850100000000	0.00000000000000	0.00000000000000	0.00000000000000	0.00000000000000	0.00000000000000	0.00000000000000	0.00000000000000	24.84461800000000	0.00000000000000	0.00000000000000	0.00000000000000	0.00000000000000	
23.71491400000000	68.59701900000000	806.12959300000000	61.19512100000000	0.32446000000000	0.00000000000000	0.09845300000000	0.00000000000000	0.00000000000000	0.00000000000000	0.00000000000000	0.00000000000000	0.00000000000000	0.00000000000000	24.90239100000000	0.00000000000000	0.00000000000000	0.00000000000000	0.00000000000000	
23.71657700000000	67.92954100000000	807.71019300000000	61.30585200000000	0.32360500000000	0.00000000000000	0.09840600000000	0.00000000000000	0.00000000000000	0.00000000000000	0.00000000000000	0.00000000000000	0.00000000000000	0.00000000000000	24.95794200000000	0.00000000000000	0.00000000000000	0.00000000000000	0.00000000000000	
23.71824300000000	67.26098900000000	809.10066099999995	61.41124300000000	0.32276200000000	0.00000000000000	0.09835800000000	0.00000000000000	0.00000000000000	0.00000000000000	0.00000000000000	0.00000000000000	0.00000000000000	0.00000000000000	25.01113300000000	0.00000000000000	0.00000000000000	0.00000000000000	0.00000000000000	
23.71991400000000	66.59150800000000	810.30111999999997	61.51109000000000	0.32193100000000	0.00000000000000	0.09831100000000	0.00000000000000	0.00000000000000	0.00000000000000	0.00000000000000	0.00000000000000	0.00000000000000	0.00000000000000	25.06179400000000	0.00000000000000	0.00000000000000	0.00000000000000	0.00000000000000	
23.72158100000000	65.92118700000000	811.31201399999998	61.60514400000000	0.32110900000000	0.00000000000000	0.09826300000000	0.00000000000000	0.00000000000000	0.00000000000000	0.00000000000000	0.00000000000000	0.00000000000000	0.00000000000000	25.10973500000000	0.00000000000000	0.00000000000000	0.00000000000000	0.00000000000000	
23.72324200000000	65.25006100000000	812.13412000000005	61.69311700000000	0.32029400000000	0.00000000000000	0.09821600000000	0.00000000000000	0.00000000000000	0.00000000000000	0.00000000000000	0.00000000000000	0.00000000000000	0.00000000000000	25.15473900000000	0.00000000000000	0.00000000000000	0.00000000000000	0.00000000000000	
23.72490700000000	64.57811900000000	812.76854700000001	61.77468200000000	0.31948500000000	0.00000000000000	0.09816800000000	0.00000000000000	0.00000000000000	0.00000000000000	0.00000000000000	0.00000000000000	0.00000000000000	0.00000000000000	25.19657100000000	0.00000000000000	0.00000000000000	0.00000000000000	0.00000000000000	
23.72657400000000	63.90530500000000	813.21674499999995	61.84947900000000	0.31868100000000	0.00000000000000	0.09812100000000	0.00000000000000	0.00000000000000	0.00000000000000	0.00000000000000	0.00000000000000	0.00000000000000	0.00000000000000	25.23497900000000	0.00000000000000	0.00000000000000	0.00000000000000	0.00000000000000	
23.72824900000000	63.23152300000000	813.48050400000000	61.91712200000000	0.31787800000000	0.00000000000000	0.09807400000000	0.00000000000000	0.00000000000000	0.00000000000000	0.00000000000000	0.00000000000000	0.00000000000000	0.00000000000000	25.26969600000000	0.00000000000000	0.00000000000000	0.00000000000000	0.00000000000000	
23.72991200000000	62.55664600000000	813.56195300000002	61.97720200000000	0.31707400000000	0.00000000000000	0.09802700000000	0.00000000000000	0.00000000000000	0.00000000000000	0.00000000000000	0.00000000000000	0.00000000000000	0.00000000000000	25.30044600000000	0.00000000000000	0.00000000000000	0.00000000000000	0.00000000000000	
23.73158100000000	61.88051700000000	813.46356500000002	62.02929300000000	0.31626900000000	0.00000000000000	0.09798000000000	0.00000000000000	0.00000000000000	0.00000000000000	0.00000000000000	0.00000000000000	0.00000000000000	0.00000000000000	25.32694100000000	0.00000000000000	0.00000000000000	0.00000000000000	0.00000000000000	
23.73325100000000	61.20295500000000	813.18814899999995	62.07295500000000	0.31546000000000	0.00000000000000	0.09793400000000	0.00000000000000	0.00000000000000	0.00000000000000	0.00000000000000	0.00000000000000	0.00000000000000	0.00000000000000	25.34889200000000	0.00000000000000	0.00000000000000	0.00000000000000	0.00000000000000	
23.73491000000000	60.52376200000000	812.73884899999996	62.10774000000000	0.31464500000000	0.00000000000000	0.09788800000000	0.00000000000000	0.00000000000000	0.00000000000000	0.00000000000000	0.00000000000000	0.00000000000000	0.00000000000000	25.36600500000000	0.00000000000000	0.00000000000000	0.00000000000000	0.00000000000000	
23.73657700000000	59.84272700000000	812.11913900000002	62.13320000000000	0.31382100000000	0.00000000000000	0.09784200000000	0.00000000000000	0.00000000000000	0.00000000000000	0.00000000000000	0.00000000000000	0.00000000000000	0.00000000000000	25.37798700000000	0.00000000000000	0.00000000000000	0.00000000000000	0.00000000000000	
23.73824100000000	59.15963000000000	811.33281599999998	62.14888700000000	0.31298800000000	0.00000000000000	0.09779700000000	0.00000000000000	0.00000000000000	0.00000000000000	0.00000000000000	0.00000000000000	0.00000000000000	0.00000000000000	25.38455100000000	0.00000000000000	0.00000000000000	0.00000000000000	0.00000000000000	
23.73990800000000	58.47424600000000	810.38399100000004	62.15436200000000	0.31214300000000	0.00000000000000	0.09775200000000	0.00000000000000	0.00000000000000	0.00000000000000	0.00000000000000	0.00000000000000	0.00000000000000	0.00000000000000	25.38541400000000	0.00000000000000	0.00000000000000	0.00000000000000	0.00000000000000	
23.74157400000000	57.78635600000000	809.27708299999995	62.14919700000000	0.31128400000000	0.00000000000000	0.09770700000000	0.00000000000000	0.00000000000000	0.00000000000000	0.00000000000000	0.00000000000000	0.00000000000000	0.00000000000000	25.38030400000000	0.00000000000000	0.00000000000000	0.00000000000000	0.00000000000000	
23.74324200000000	57.09574300000000	808.01680499999998	62.13298100000000	0.31041000000000	0.00000000000000	0.09766300000000	0.00000000000000	0.00000000000000	0.00000000000000	0.00000000000000	0.00000000000000	0.00000000000000	0.00000000000000	25.36896300000000	0.00000000000000	0.00000000000000	0.00000000000000	0.00000000000000	
23.74491500000000	56.40220300000000	806.60815500000001	62.10532400000000	0.30951900000000	0.00000000000000	0.09761900000000	0.00000000000000	0.00000000000000	0.00000000000000	0.00000000000000	0.00000000000000	0.00000000000000	0.00000000000000	25.35114500000000	0.00000000000000	0.00000000000000	0.00000000000000	0.00000000000000	
